<svg width="20" height="20" viewBox="0 0 20 20" fill="none" xmlns="http://www.w3.org/2000/svg">
<path d="M19.0858 5.44833C18.5225 5.16667 17.8583 5.22583 17.355 5.605C17.3225 5.62917 17.2917 5.65667 17.2633 5.685L15.7992 7.1625C15.6233 5.025 13.8483 3.33417 11.6667 3.33417H4.16667C1.86917 3.33333 0 5.2025 0 7.5V12.5C0 14.7975 1.86917 16.6667 4.16667 16.6667H11.6667C13.8575 16.6667 15.64 14.9608 15.8017 12.8108L17.265 14.2725C17.2933 14.3 17.3225 14.325 17.3542 14.3492C17.6475 14.5692 17.9942 14.6808 18.3442 14.6808C18.5967 14.6808 18.8492 14.6233 19.0858 14.505C19.65 14.2233 20 13.6558 20 13.0267V6.92833C20 6.2975 19.65 5.73 19.0858 5.44833ZM11.6667 15H4.16667C2.78833 15 1.66667 13.8783 1.66667 12.5V7.5C1.66667 6.12167 2.78833 5 4.16667 5H11.6667C13.045 5 14.1667 6.12167 14.1667 7.5V12.5C14.1667 13.8783 13.045 15 11.6667 15ZM15.8333 10.4858V9.495L18.3333 6.97167L18.3542 13.0033L15.8333 10.485V10.4858Z" fill="#403429"/>
</svg>
